# Blender 5.0.1
# www.blender.org
mtllib ogr.mtl
o Cube.001
v 29.608347 -17.934452 29.608343
v 28.154947 103.724388 24.631126
v -29.608343 -17.934452 29.608347
v -28.154943 103.724388 24.631130
v 29.608343 -17.934452 -29.608347
v 28.154943 103.724388 -24.631136
v -29.608347 -17.934452 -29.608343
v -28.154947 103.724388 -24.631132
v 0.000002 -78.870163 34.706261
v 34.706261 19.784447 34.706261
v 0.000001 117.254128 33.671047
v -34.706261 19.784447 34.706261
v -34.706261 -16.132263 0.000002
v -32.987301 93.617867 -0.000000
v -34.706261 19.784447 -34.706261
v -0.000002 -78.870163 -34.706261
v -0.000002 117.307396 -33.671051
v 34.706261 19.784447 -34.706261
v 34.706261 -16.132263 -0.000002
v 32.881371 93.617867 -0.000003
v 0.000000 10.726295 0.000000
v 35.915367 19.784447 -0.000002
v -0.000002 19.784447 -36.953491
v -36.437023 19.784447 0.000002
v 0.000002 19.784447 40.438305
v 32.157303 54.438286 32.157303
v -15.011214 104.739037 32.597141
v 15.011214 104.739037 -32.455616
v 15.011216 104.739037 32.597141
v -32.157303 54.438286 32.157303
v -32.157303 54.438286 -32.157303
v -15.011216 104.739037 -32.455616
v 32.157303 54.438286 -32.157303
v 17.353128 19.784447 -35.829876
v -17.353132 19.784447 -35.829876
v -0.000002 69.651237 -35.829876
v -17.353128 19.784447 37.572281
v 17.353132 19.784447 37.572281
v 0.000002 69.651237 37.572281
v 16.078653 62.044762 34.864792
v -16.078653 62.044762 -33.993591
v 16.078650 62.044762 -33.993591
v -16.078650 62.044762 34.864792
v 14.804173 104.305092 32.157303
v 0.000002 106.187370 34.706261
v -14.804173 104.305092 -32.157303
v -0.000002 106.449593 -34.706261
v -14.804172 104.305092 32.157303
v 14.804172 104.305092 -32.157303
v -0.000002 69.651237 -35.829876
v 0.000002 88.217018 37.572281
v 16.078653 80.610527 34.864792
v -16.078653 62.044762 -33.993591
v 16.078650 62.044762 -33.993591
v -16.078650 80.610527 34.864792
v 14.804176 107.473793 82.056793
v 0.000004 109.356087 84.605751
v -14.804169 107.473793 82.056793
v 0.000004 91.385719 87.471771
v 16.078655 83.779228 84.764275
v -16.078648 83.779228 84.764275
v -14.804173 104.305092 -32.157303
v -0.000002 106.187370 -34.706261
v 14.804172 104.305092 -32.157303
v -0.000002 88.217018 -35.829876
v -16.078653 80.610527 -33.993591
v 16.078650 80.610527 -33.993591
v 14.804176 107.473793 82.056793
v 0.000004 109.356087 84.605751
v -14.804169 107.473793 82.056793
v 0.000004 91.385719 87.471771
v 16.078655 83.779228 84.764275
v -16.078648 83.779228 84.764275
v -14.804176 106.026329 -82.127670
v -0.000004 107.908607 -84.676620
v 14.804169 106.026329 -82.127670
v -0.000004 89.938240 -85.800240
v -16.078655 82.331764 -83.963951
v 16.078648 82.331764 -83.963951
v -14.804178 108.027702 -132.087601
v -0.000006 109.909981 -134.636551
v 14.804167 108.027702 -132.087601
v -0.000006 91.939629 -135.760162
v -16.078657 84.333138 -133.923889
v 16.078646 84.333138 -133.923889
v 14.804178 111.156425 131.920990
v 0.000006 113.038719 134.469955
v -14.804167 111.156425 131.920990
v 0.000006 95.068336 137.335968
v 16.078657 87.461861 134.628479
v -16.078646 87.461861 134.628479
v 14.804173 -65.150208 32.157303
v -32.157303 -17.033356 14.804173
v -14.804173 -65.150208 -32.157303
v 32.157303 -17.033356 -14.804173
v -14.804172 -65.150208 32.157303
v -32.157303 -17.033356 -14.804172
v 14.804172 -65.150208 -32.157303
v 32.157303 -17.033356 14.804172
v 17.353130 6.005783 -0.000001
v -17.353130 6.005783 0.000001
v 0.000001 11.398994 17.353130
v -0.000001 11.398994 -17.353130
v -16.078651 5.891586 -16.078651
v -16.078651 5.891586 16.078651
v 16.078651 5.891586 16.078651
v 16.078651 5.891586 -16.078651
v 14.804173 -150.022278 32.157303
v 29.608347 -151.430267 29.608343
v -32.157303 -150.529160 14.804173
v -29.608343 -151.430267 29.608347
v -14.804173 -150.022278 -32.157303
v -29.608347 -151.430267 -29.608343
v 32.157303 -150.529160 -14.804173
v 29.608343 -151.430267 -29.608347
v -14.804172 -150.022278 32.157303
v 0.000002 -150.179245 34.706261
v 14.804172 -150.022278 -32.157303
v -0.000002 -150.179245 -34.706261
v 0.000001 -150.851929 17.353130
v -32.157303 -150.529160 -14.804172
v 32.157303 -150.529160 14.804172
v -0.000001 -150.851929 -17.353130
v -16.078651 -149.908081 -16.078651
v -16.078651 -149.908081 16.078651
v 16.078651 -149.908081 16.078651
v 16.078651 -149.908081 -16.078651
v -14.804172 159.694824 32.157295
v -26.980341 155.578156 22.281918
v -25.588211 161.997253 -0.000006
v -26.980345 155.578156 -22.281927
v 14.804172 159.694824 -32.157307
v 26.980341 155.578156 -22.281931
v 25.588211 161.997253 -0.000008
v 26.980345 155.578156 22.281914
v 14.804173 159.694824 32.157295
v 0.000001 161.624084 26.623413
v -14.804173 159.694824 -32.157307
v -0.000001 161.624084 -26.623428
v -0.000000 160.660828 -0.000008
vn -0.3713 0.1185 0.9209
vn -0.9933 0.0691 -0.0927
vn 0.3413 0.1108 -0.9334
vn 0.9944 0.0660 0.0831
vn -0.9855 -0.0000 0.1697
vn -0.5797 0.0288 0.8144
vn -0.9951 0.0723 -0.0673
vn 0.1122 0.0745 0.9909
vn 0.5765 0.0277 -0.8166
vn -0.7991 -0.5895 -0.1183
vn 0.2924 -0.9563 0.0048
vn 0.1697 -0.0000 0.9855
vn 0.9913 -0.0915 0.0946
vn 0.9913 -0.0915 -0.0946
vn 0.9944 0.0660 -0.0831
vn 0.1687 -0.0531 -0.9842
vn -0.1687 -0.0531 -0.9842
vn -0.9048 -0.0000 -0.4259
vn -0.9898 -0.0989 -0.1023
vn -0.9898 -0.0989 0.1023
vn -0.9933 0.0691 0.0927
vn -0.2365 -0.0770 0.9686
vn 0.2365 -0.0770 0.9686
vn -0.8215 -0.0000 -0.5702
vn 0.1778 0.0619 0.9821
vn 0.1808 0.0760 0.9806
vn 0.3713 0.1185 0.9209
vn -0.0957 0.0333 -0.9949
vn -0.1019 0.0617 -0.9929
vn -0.3413 0.1108 -0.9334
vn 0.1019 0.0617 -0.9929
vn 0.0957 0.0333 -0.9949
vn -0.1436 0.0486 0.9884
vn -0.1808 0.0760 0.9806
vn -0.1778 0.0619 0.9821
vn -0.0000 1.0000 -0.0000
vn 0.1697 -0.0000 -0.9855
vn -0.4190 -0.9062 0.0575
vn 0.4190 -0.9062 0.0575
vn 0.1548 0.0615 -0.9860
vn -0.1548 0.0615 -0.9860
vn -0.1661 -0.0000 0.9861
vn 0.9048 -0.0000 -0.4259
vn 0.1436 0.0486 0.9884
vn 0.1661 -0.0000 0.9861
vn 0.8215 -0.0000 -0.5702
vn -0.8215 -0.0000 0.5702
vn -0.9986 0.0533 -0.0034
vn -0.1152 0.9913 -0.0630
vn 0.1152 0.9913 -0.0630
vn 0.9986 0.0533 -0.0034
vn 0.4245 -0.9049 -0.0312
vn -0.4245 -0.9049 -0.0312
vn 0.4174 -0.9062 0.0669
vn 0.1134 0.9909 -0.0732
vn 0.1135 -0.0000 -0.9935
vn 0.8215 -0.0000 0.5702
vn -0.1697 -0.0000 -0.9855
vn -0.1135 -0.0000 -0.9935
vn 0.4240 -0.9049 -0.0363
vn -0.4240 -0.9049 -0.0363
vn 0.1203 0.9922 0.0342
vn 0.9986 0.0536 0.0018
vn -0.9986 0.0536 0.0018
vn -0.1203 0.9922 0.0342
vn -0.1627 0.0749 -0.9838
vn 0.1627 0.0749 -0.9838
vn 0.1193 0.9921 0.0397
vn 0.9986 0.0535 0.0021
vn -0.9986 0.0535 0.0021
vn -0.1193 0.9921 0.0397
vn 0.2067 0.1359 0.9689
vn -0.2067 0.1359 0.9689
vn -0.4174 -0.9062 0.0669
vn -0.1134 0.9909 -0.0732
vn -0.9986 0.0533 -0.0039
vn 0.9986 0.0533 -0.0039
vn 0.2924 -0.9563 -0.0048
vn 0.7991 -0.5895 0.1183
vn 0.9855 -0.0000 0.1697
vn 0.9855 -0.0000 -0.1697
vn -0.0790 -0.0000 -0.9969
vn 0.7991 -0.5895 -0.1183
vn 0.0790 -0.0000 0.9969
vn -0.2924 -0.9563 0.0048
vn -0.7991 -0.5895 0.1183
vn -0.2924 -0.9563 -0.0048
vn -0.0706 -0.9966 0.0415
vn -0.0379 -0.9991 -0.0181
vn 0.0706 -0.9966 0.0415
vn -0.0379 -0.9991 0.0181
vn 0.0706 -0.9966 -0.0415
vn -0.0706 -0.9966 -0.0415
vn 0.0379 -0.9991 0.0181
vn 0.0379 -0.9991 -0.0181
vn -0.1697 -0.0000 0.9855
vn 0.0790 -0.0000 -0.9969
vn -0.0790 -0.0000 0.9969
vn -0.9855 -0.0000 -0.1697
vn 0.1114 0.9915 0.0678
vn 0.1114 0.9915 -0.0678
vn -0.1114 0.9915 -0.0678
vn -0.1114 0.9915 0.0678
vn -0.1080 0.0731 -0.9915
vn 0.9953 0.0714 -0.0651
vn -0.5765 0.0277 -0.8166
vn 0.1080 0.0731 -0.9915
vn 0.5797 0.0288 0.8144
vn -0.9951 0.0723 0.0673
vn -0.1122 0.0745 0.9909
vn 0.9953 0.0714 0.0651
vt 0.562500 0.187500
vt 0.625000 0.187500
vt 0.625000 0.250000
vt 0.562500 0.250000
vt 0.500000 0.375000
vt 0.625000 0.375000
vt 0.625000 0.500000
vt 0.562500 0.500000
vt 0.500000 0.500000
vt 0.562500 0.687500
vt 0.625000 0.687500
vt 0.625000 0.750000
vt 0.562500 0.750000
vt 0.500000 0.875000
vt 0.625000 0.875000
vt 0.625000 1.000000
vt 0.562500 1.000000
vt 0.500000 1.000000
vt 0.375000 0.250000
vt 0.375000 0.312500
vt 0.875000 0.562500
vt 0.875000 0.625000
vt 0.187500 0.687500
vt 0.250000 0.687500
vt 0.250000 0.750000
vt 0.187500 0.750000
vt 0.187500 0.562500
vt 0.250000 0.562500
vt 0.250000 0.625000
vt 0.187500 0.625000
vt 0.375000 0.062500
vt 0.375000 0.125000
vt 0.375000 0.875000
vt 0.375000 1.000000
vt 0.375000 0.937500
vt 0.375000 0.750000
vt 0.500000 0.750000
vt 0.375000 0.812500
vt 0.375000 0.625000
vt 0.500000 0.625000
vt 0.500000 0.687500
vt 0.375000 0.687500
vt 0.375000 0.500000
vt 0.500000 0.562500
vt 0.375000 0.562500
vt 0.375000 0.375000
vt 0.375000 0.437500
vt 0.500000 0.250000
vt 0.500000 0.125000
vt 0.500000 0.187500
vt 0.375000 0.187500
vt 0.375000 0.000000
vt 0.500000 0.000000
vt 0.500000 0.062500
vt 0.562500 0.062500
vt 0.562500 0.125000
vt 0.562500 0.000000
vt 0.625000 0.000000
vt 0.625000 0.062500
vt 0.562500 0.562500
vt 0.562500 0.625000
vt 0.625000 0.562500
vt 0.625000 0.625000
vt 0.875000 0.687500
vt 0.625000 0.125000
vt 0.312500 0.562500
vt 0.312500 0.625000
vt 0.250000 0.500000
vt 0.312500 0.500000
vt 0.187500 0.500000
vt 0.312500 0.687500
vt 0.312500 0.750000
vt 0.125000 0.562500
vt 0.125000 0.625000
vt 0.125000 0.500000
vt 0.125000 0.687500
vt 0.125000 0.750000
vt 0.750000 0.625000
vt 0.875000 0.750000
vt 0.750000 0.750000
vt 0.750000 0.500000
vt 0.875000 0.500000
s 0
usemtl Material.001
f 43/1/1 27/2/1 4/3/1 30/4/1
f 24/5/2 14/6/2 8/7/2 31/8/2 15/9/2
f 42/10/3 28/11/3 6/12/3 33/13/3
f 22/14/4 20/15/4 2/16/4 26/17/4 10/18/4
f 3/19/5 93/20/5 110/20/5 111/19/5
f 4/3/6 27/2/6 128/2/6 129/3/6
f 8/7/7 14/6/7 130/6/7 131/7/7
f 27/21/8 11/22/8 137/22/8 128/21/8
f 6/12/9 28/11/9 132/11/9 133/12/9
f 106/23/10 100/24/10 19/25/10 99/26/10
f 105/27/11 101/28/11 21/29/11 102/30/11
f 92/31/12 9/32/12 117/32/12 108/31/12
f 19/33/13 22/14/13 10/18/13 1/34/13 99/35/13
f 5/36/14 18/37/14 22/14/14 19/33/14 95/38/14
f 18/37/15 33/13/15 6/12/15 20/15/15 22/14/15
f 16/39/16 23/40/16 34/41/16 18/37/16 5/36/16 98/42/16
f 7/43/17 15/9/17 35/44/17 23/40/17 16/39/17 94/45/17
f 27/2/18 43/1/18 55/1/18 48/2/18
f 13/46/19 24/5/19 15/9/19 7/43/19 97/47/19
f 3/19/20 12/48/20 24/5/20 13/46/20 93/20/20
f 12/48/21 30/4/21 4/3/21 14/6/21 24/5/21
f 9/32/22 25/49/22 37/50/22 12/48/22 3/19/22 96/51/22
f 1/52/23 10/53/23 38/54/23 25/49/23 9/32/23 92/31/23
f 28/11/24 42/10/24 54/10/24 49/11/24
f 38/54/25 40/55/25 39/56/25 25/49/25
f 10/53/26 26/57/26 40/55/26 38/54/26
f 26/57/27 2/58/27 29/59/27 40/55/27
f 35/44/28 41/60/28 36/61/28 23/40/28
f 15/9/29 31/8/29 41/60/29 35/44/29
f 31/8/30 8/7/30 32/62/30 41/60/30
f 34/41/31 42/10/31 33/13/31 18/37/31
f 23/40/32 36/61/32 42/10/32 34/41/32
f 11/22/33 27/21/33 48/21/33 45/22/33
f 37/50/34 43/1/34 30/4/34 12/48/34
f 25/49/35 39/56/35 43/1/35 37/50/35
f 36/61/36 41/60/36 53/60/36 50/61/36
f 47/63/37 49/11/37 64/11/37 63/63/37
f 51/56/38 52/55/38 60/55/38 59/56/38
f 58/2/36 61/1/36 73/1/36 70/2/36
f 55/1/39 51/56/39 59/56/39 61/1/39
f 17/63/40 28/11/40 49/11/40 47/63/40
f 32/62/41 17/63/41 47/63/41 46/62/41
f 42/10/36 36/61/36 50/61/36 54/10/36
f 43/1/42 39/56/42 51/56/42 55/1/42
f 40/55/43 29/59/43 44/59/43 52/55/43
f 29/64/44 11/22/44 45/22/44 44/64/44
f 39/56/45 40/55/45 52/55/45 51/56/45
f 41/60/46 32/62/46 46/62/46 53/60/46
f 53/60/47 46/62/47 62/62/47 66/60/47
f 61/1/36 59/56/36 71/56/36 73/1/36
f 48/2/48 55/1/48 61/1/48 58/2/48
f 45/22/49 48/21/49 58/21/49 57/22/49
f 44/64/50 45/22/50 57/22/50 56/64/50
f 52/55/51 44/59/51 56/59/51 60/55/51
f 65/61/52 66/60/52 78/60/52 77/61/52
f 67/10/53 65/61/53 77/61/53 79/10/53
f 73/1/54 71/56/54 89/56/54 91/1/54
f 68/64/55 69/22/55 87/22/55 86/64/55
f 59/56/36 60/55/36 72/55/36 71/56/36
f 54/10/56 50/61/56 65/61/56 67/10/56
f 56/64/36 57/22/36 69/22/36 68/64/36
f 60/55/36 56/59/36 68/59/36 72/55/36
f 49/11/57 54/10/57 67/10/57 64/11/57
f 46/62/58 47/63/58 63/63/58 62/62/58
f 57/22/36 58/21/36 70/21/36 69/22/36
f 50/61/59 53/60/59 66/60/59 65/61/59
f 77/61/60 78/60/60 84/60/60 83/61/60
f 79/10/61 77/61/61 83/61/61 85/10/61
f 63/63/62 64/11/62 76/11/62 75/63/62
f 64/11/63 67/10/63 79/10/63 76/11/63
f 66/60/64 62/62/64 74/62/64 78/60/64
f 62/62/65 63/63/65 75/63/65 74/62/65
f 84/60/66 80/62/66 81/63/66 83/61/66
f 83/61/67 81/63/67 82/11/67 85/10/67
f 75/63/68 76/11/68 82/11/68 81/63/68
f 76/11/69 79/10/69 85/10/69 82/11/69
f 78/60/70 74/62/70 80/62/70 84/60/70
f 74/62/71 75/63/71 81/63/71 80/62/71
f 90/55/72 86/59/72 87/65/72 89/56/72
f 89/56/73 87/65/73 88/2/73 91/1/73
f 71/56/74 72/55/74 90/55/74 89/56/74
f 69/22/75 70/21/75 88/21/75 87/22/75
f 70/2/76 73/1/76 91/1/76 88/2/76
f 72/55/77 68/59/77 86/59/77 90/55/77
f 101/28/78 104/66/78 103/67/78 21/29/78
f 13/68/79 97/69/79 104/66/79 101/28/79
f 99/35/80 1/34/80 109/34/80 122/35/80
f 5/36/81 95/38/81 114/38/81 115/36/81
f 102/30/82 106/23/82 126/23/82 120/30/82
f 93/70/83 13/68/83 101/28/83 105/27/83
f 98/42/37 5/36/37 115/36/37 118/42/37
f 104/66/84 97/69/84 121/69/84 124/66/84
f 102/30/85 21/29/85 100/24/85 106/23/85
f 100/24/86 107/71/86 95/72/86 19/25/86
f 21/29/87 103/67/87 107/71/87 100/24/87
f 106/23/82 99/26/82 122/26/82 126/23/82
f 127/71/88 118/42/88 115/36/88 114/72/88
f 124/66/89 112/45/89 119/39/89 123/67/89
f 121/69/90 113/43/90 112/45/90 124/66/90
f 116/73/91 125/27/91 120/30/91 117/74/91
f 111/75/92 110/70/92 125/27/92 116/73/92
f 108/76/93 126/23/93 122/26/93 109/77/93
f 117/74/94 120/30/94 126/23/94 108/76/94
f 123/67/95 119/39/95 118/42/95 127/71/95
f 16/39/37 98/42/37 118/42/37 119/39/37
f 9/32/96 96/51/96 116/51/96 117/32/96
f 105/27/97 102/30/97 120/30/97 125/27/97
f 95/72/98 107/71/98 127/71/98 114/72/98
f 94/45/58 16/39/58 119/39/58 112/45/58
f 93/70/97 105/27/97 125/27/97 110/70/97
f 107/71/98 103/67/98 123/67/98 127/71/98
f 7/43/58 94/45/58 112/45/58 113/43/58
f 1/52/12 92/31/12 108/31/12 109/52/12
f 96/51/96 3/19/96 111/19/96 116/51/96
f 103/67/84 104/66/84 124/66/84 123/67/84
f 97/47/99 7/43/99 113/43/99 121/47/99
f 140/78/100 137/22/100 136/64/100 135/79/100 134/80/100
f 139/63/101 140/78/101 134/80/101 133/12/101 132/11/101
f 131/7/102 130/81/102 140/78/102 139/63/102 138/62/102
f 130/81/103 129/82/103 128/21/103 137/22/103 140/78/103
f 28/11/104 17/63/104 139/63/104 132/11/104
f 20/15/105 6/12/105 133/12/105 134/15/105
f 32/62/106 8/7/106 131/7/106 138/62/106
f 17/63/107 32/62/107 138/62/107 139/63/107
f 29/59/108 2/58/108 135/58/108 136/59/108
f 14/6/109 4/3/109 129/3/109 130/6/109
f 11/22/110 29/64/110 136/64/110 137/22/110
f 2/16/111 20/15/111 134/15/111 135/16/111
