# Blender 5.0.1
# www.blender.org
mtllib start.mtl
o Cube
v 500.000000 50.000000 -500.000000
v 500.000000 -50.000000 -500.000000
v 500.000000 50.000000 500.000000
v 500.000000 -50.000000 500.000000
v -500.000000 50.000000 -500.000000
v -500.000000 -50.000000 -500.000000
v -500.000000 50.000000 500.000000
v -500.000000 -50.000000 500.000000
v 0.000000 50.000000 500.000000
v 500.000000 50.000000 0.000000
v -500.000000 50.000000 0.000000
v 0.000000 50.000000 -500.000000
v 0.000000 50.000000 0.000000
v -250.000000 50.000000 500.000000
v 500.000000 50.000000 250.000000
v -500.000000 50.000000 -250.000000
v 250.000000 50.000000 -500.000000
v 250.000000 50.000000 500.000000
v 500.000000 50.000000 -250.000000
v -500.000000 50.000000 250.000000
v -250.000000 50.000000 -500.000000
v 0.000000 50.000000 250.000000
v 0.000000 50.000000 -250.000000
v 250.000000 50.000000 0.000000
v -250.000000 50.000000 0.000000
v -250.000000 50.000000 -250.000000
v 250.000000 50.000000 -250.000000
v 250.000000 50.000000 250.000000
v -250.000000 50.000000 250.000000
v -375.000000 50.000000 500.000000
v 500.000000 50.000000 375.000000
v -500.000000 50.000000 -375.000000
v 375.000000 50.000000 -500.000000
v 125.000000 50.000000 500.000000
v 500.000000 50.000000 -125.000000
v -500.000000 50.000000 125.000000
v -125.000000 50.000000 -500.000000
v 0.000000 50.000000 375.000000
v 0.000000 50.000000 -125.000000
v 375.000000 50.000000 0.000000
v -125.000000 50.000000 0.000000
v -125.000000 50.000000 500.000000
v 500.000000 50.000000 125.000000
v -500.000000 50.000000 -125.000000
v 125.000000 50.000000 -500.000000
v 375.000000 50.000000 500.000000
v 500.000000 50.000000 -375.000000
v -500.000000 50.000000 375.000000
v -375.000000 50.000000 -500.000000
v 0.000000 50.000000 125.000000
v 0.000000 50.000000 -375.000000
v 125.000000 50.000000 0.000000
v -375.000000 50.000000 0.000000
v -250.000000 50.000000 -125.000000
v -250.000000 50.000000 -375.000000
v -125.000000 50.000000 -250.000000
v -375.000000 50.000000 -250.000000
v 250.000000 50.000000 -125.000000
v 250.000000 50.000000 -375.000000
v 375.000000 50.000000 -250.000000
v 125.000000 50.000000 -250.000000
v 250.000000 50.000000 375.000000
v 250.000000 50.000000 125.000000
v 375.000000 50.000000 250.000000
v 125.000000 50.000000 250.000000
v -250.000000 50.000000 375.000000
v -250.000000 50.000000 125.000000
v -125.000000 50.000000 250.000000
v -375.000000 50.000000 250.000000
v -375.000000 50.000000 125.000000
v -125.000000 50.000000 125.000000
v -125.000000 50.000000 375.000000
v 125.000000 50.000000 125.000000
v 375.000000 50.000000 125.000000
v 375.000000 50.000000 375.000000
v 125.000000 50.000000 -375.000000
v 375.000000 50.000000 -375.000000
v 375.000000 50.000000 -125.000000
v -375.000000 50.000000 -375.000000
v -125.000000 50.000000 -375.000000
v -125.000000 50.000000 -125.000000
v -375.000000 50.000000 -125.000000
v 125.000000 50.000000 -125.000000
v 125.000000 50.000000 375.000000
v -375.000000 50.000000 375.000000
v -375.000000 50.000000 500.000000
v -500.000000 50.000000 500.000000
v 500.000000 50.000000 375.000000
v 500.000000 50.000000 500.000000
v -500.000000 50.000000 -375.000000
v -500.000000 50.000000 -500.000000
v 375.000000 50.000000 -500.000000
v 500.000000 50.000000 -500.000000
v 125.000000 50.000000 500.000000
v 0.000000 50.000000 500.000000
v 500.000000 50.000000 -125.000000
v 500.000000 50.000000 0.000000
v -500.000000 50.000000 125.000000
v -500.000000 50.000000 0.000000
v -125.000000 50.000000 -500.000000
v 0.000000 50.000000 -500.000000
v 0.000000 50.000000 375.000000
v 375.000000 50.000000 0.000000
v -125.000000 50.000000 500.000000
v -250.000000 50.000000 500.000000
v 500.000000 50.000000 125.000000
v 500.000000 50.000000 250.000000
v -500.000000 50.000000 -125.000000
v -500.000000 50.000000 -250.000000
v 125.000000 50.000000 -500.000000
v 250.000000 50.000000 -500.000000
v 375.000000 50.000000 500.000000
v 250.000000 50.000000 500.000000
v 500.000000 50.000000 -375.000000
v 500.000000 50.000000 -250.000000
v -500.000000 50.000000 375.000000
v -500.000000 50.000000 250.000000
v -375.000000 50.000000 -500.000000
v -250.000000 50.000000 -500.000000
v 375.000000 50.000000 -250.000000
v 250.000000 50.000000 375.000000
v 375.000000 50.000000 250.000000
v -250.000000 50.000000 375.000000
v 0.000000 50.000000 -375.000000
v -375.000000 50.000000 0.000000
v -250.000000 50.000000 -375.000000
v -375.000000 50.000000 -250.000000
v 250.000000 50.000000 -375.000000
v -375.000000 50.000000 250.000000
v -375.000000 50.000000 125.000000
v -125.000000 50.000000 375.000000
v 375.000000 50.000000 125.000000
v 375.000000 50.000000 375.000000
v 125.000000 50.000000 -375.000000
v 375.000000 50.000000 -375.000000
v 375.000000 50.000000 -125.000000
v -375.000000 50.000000 -375.000000
v -125.000000 50.000000 -375.000000
v -375.000000 50.000000 -125.000000
v 125.000000 50.000000 375.000000
v -375.000000 50.000000 375.000000
v -375.000000 244.305847 500.000000
v -500.000000 244.305847 500.000000
v 500.000000 244.305847 375.000000
v 500.000000 244.305847 500.000000
v -500.000000 244.305847 -375.000000
v -500.000000 244.305847 -500.000000
v 375.000000 244.305847 -500.000000
v 500.000000 244.305847 -500.000000
v 125.000000 244.305847 500.000000
v 0.000000 244.305847 500.000000
v 500.000000 244.305847 -125.000000
v 500.000000 244.305847 0.000000
v -500.000000 244.305847 125.000000
v -500.000000 244.305847 0.000000
v -125.000000 244.305847 -500.000000
v 0.000000 244.305847 -500.000000
v 0.000000 244.305847 375.000000
v 375.000000 244.305847 0.000000
v -125.000000 244.305847 500.000000
v -250.000000 244.305847 500.000000
v 500.000000 244.305847 125.000000
v 500.000000 244.305847 250.000000
v -500.000000 244.305847 -125.000000
v -500.000000 244.305847 -250.000000
v 125.000000 244.305847 -500.000000
v 250.000000 244.305847 -500.000000
v 375.000000 244.305847 500.000000
v 250.000000 244.305847 500.000000
v 500.000000 244.305847 -375.000000
v 500.000000 244.305847 -250.000000
v -500.000000 244.305847 375.000000
v -500.000000 244.305847 250.000000
v -375.000000 244.305847 -500.000000
v -250.000000 244.305847 -500.000000
v 375.000000 244.305847 -250.000000
v 250.000000 244.305847 375.000000
v 375.000000 244.305847 250.000000
v -250.000000 244.305847 375.000000
v 0.000000 244.305847 -375.000000
v -375.000000 244.305847 0.000000
v -250.000000 244.305847 -375.000000
v -375.000000 244.305847 -250.000000
v 250.000000 244.305847 -375.000000
v -375.000000 244.305847 250.000000
v -375.000000 244.305847 125.000000
v -125.000000 244.305847 375.000000
v 375.000000 244.305847 125.000000
v 375.000000 244.305847 375.000000
v 125.000000 244.305847 -375.000000
v 375.000000 244.305847 -375.000000
v 375.000000 244.305847 -125.000000
v -375.000000 244.305847 -375.000000
v -125.000000 244.305847 -375.000000
v -375.000000 244.305847 -125.000000
v 125.000000 244.305847 375.000000
v -375.000000 244.305847 375.000000
vn -0.0000 1.0000 -0.0000
vn -0.0000 -0.0000 1.0000
vn -1.0000 -0.0000 -0.0000
vn -0.0000 -1.0000 -0.0000
vn 1.0000 -0.0000 -0.0000
vn -0.0000 -0.0000 -1.0000
vt 0.625000 0.468750
vt 0.625000 0.437500
vt 0.375000 0.750000
vt 0.625000 0.750000
vt 0.625000 0.781250
vt 0.625000 0.812500
vt 0.625000 0.843750
vt 0.625000 0.875000
vt 0.625000 0.906250
vt 0.625000 0.937500
vt 0.625000 0.968750
vt 0.625000 1.000000
vt 0.375000 1.000000
vt 0.375000 0.000000
vt 0.625000 0.000000
vt 0.625000 0.031250
vt 0.625000 0.062500
vt 0.625000 0.093750
vt 0.625000 0.125000
vt 0.625000 0.156250
vt 0.625000 0.187500
vt 0.625000 0.218750
vt 0.625000 0.250000
vt 0.375000 0.250000
vt 0.125000 0.500000
vt 0.375000 0.500000
vt 0.125000 0.750000
vt 0.625000 0.500000
vt 0.625000 0.531250
vt 0.625000 0.562500
vt 0.625000 0.593750
vt 0.625000 0.625000
vt 0.625000 0.656250
vt 0.625000 0.687500
vt 0.625000 0.718750
vt 0.625000 0.281250
vt 0.625000 0.312500
vt 0.625000 0.343750
vt 0.625000 0.375000
vt 0.625000 0.406250
vt 0.718750 0.593750
vt 0.750000 0.593750
vt 0.750000 0.625000
vt 0.718750 0.625000
vt 0.781250 0.593750
vt 0.812500 0.593750
vt 0.812500 0.625000
vt 0.781250 0.625000
vt 0.781250 0.531250
vt 0.812500 0.531250
vt 0.812500 0.562500
vt 0.781250 0.562500
vt 0.656250 0.593750
vt 0.687500 0.593750
vt 0.687500 0.625000
vt 0.656250 0.625000
vt 0.656250 0.531250
vt 0.687500 0.531250
vt 0.687500 0.562500
vt 0.656250 0.562500
vt 0.718750 0.531250
vt 0.750000 0.531250
vt 0.750000 0.562500
vt 0.718750 0.562500
vt 0.656250 0.656250
vt 0.687500 0.656250
vt 0.687500 0.687500
vt 0.656250 0.687500
vt 0.718750 0.656250
vt 0.750000 0.656250
vt 0.750000 0.687500
vt 0.718750 0.687500
vt 0.781250 0.656250
vt 0.812500 0.656250
vt 0.812500 0.687500
vt 0.781250 0.687500
vt 0.843750 0.656250
vt 0.843750 0.687500
vt 0.843750 0.625000
vt 0.843750 0.531250
vt 0.781250 0.718750
vt 0.750000 0.718750
vt 0.812500 0.718750
vt 0.843750 0.562500
vt 0.687500 0.718750
vt 0.656250 0.718750
vt 0.843750 0.718750
vt 0.718750 0.718750
vt 0.843750 0.593750
vt 0.875000 0.718750
vt 0.875000 0.750000
vt 0.843750 0.750000
vt 0.750000 0.750000
vt 0.718750 0.750000
vt 0.875000 0.593750
vt 0.875000 0.625000
vt 0.875000 0.531250
vt 0.875000 0.562500
vt 0.687500 0.750000
vt 0.656250 0.750000
vt 0.812500 0.750000
vt 0.781250 0.750000
vt 0.875000 0.656250
vt 0.875000 0.687500
vt 0.687500 0.500000
vt 0.718750 0.500000
vt 0.750000 0.500000
vt 0.656250 0.500000
vt 0.812500 0.500000
vt 0.843750 0.500000
vt 0.875000 0.500000
vt 0.781250 0.500000
s 0
usemtl Material
f 33/1/1 17/2/1 111/2/1 92/1/1
f 4/3/2 3/4/2 46/5/2 18/6/2 34/7/2 9/8/2 42/9/2 14/10/2 30/11/2 7/12/2 8/13/2
f 8/14/3 7/15/3 48/16/3 20/17/3 36/18/3 11/19/3 44/20/3 16/21/3 32/22/3 5/23/3 6/24/3
f 6/25/4 2/26/4 4/3/4 8/27/4
f 2/26/5 1/28/5 47/29/5 19/30/5 35/31/5 10/32/5 43/33/5 15/34/5 31/35/5 3/4/5 4/3/5
f 6/24/6 5/23/6 49/36/6 21/37/6 37/38/6 12/39/6 45/40/6 17/2/6 33/1/6 1/28/6 2/26/6
f 18/6/1 46/5/1 112/5/1 113/6/1
f 83/41/1 39/42/1 13/43/1 52/44/1
f 32/22/1 16/21/1 109/21/1 90/22/1
f 81/45/1 54/46/1 25/47/1 41/48/1
f 80/49/1 55/50/1 26/51/1 56/52/1
f 17/2/1 45/40/1 110/40/1 111/2/1
f 78/53/1 58/54/1 24/55/1 40/56/1
f 77/57/1 59/58/1 27/59/1 60/60/1
f 76/61/1 51/62/1 23/63/1 61/64/1
f 31/35/1 15/34/1 107/34/1 88/35/1
f 74/65/1 63/66/1 28/67/1 64/68/1
f 73/69/1 50/70/1 22/71/1 65/72/1
f 16/21/1 44/20/1 108/20/1 109/21/1
f 71/73/1 67/74/1 29/75/1 68/76/1
f 30/11/1 14/10/1 105/10/1 86/11/1
f 67/74/1 70/77/1 69/78/1 29/75/1
f 25/47/1 53/79/1 70/77/1 67/74/1
f 79/80/1 55/50/1 126/50/1 137/80/1
f 50/70/1 71/73/1 68/76/1 22/71/1
f 13/43/1 41/48/1 71/73/1 50/70/1
f 41/48/1 25/47/1 67/74/1 71/73/1
f 15/34/1 43/33/1 106/33/1 107/34/1
f 22/71/1 68/76/1 72/81/1 38/82/1
f 68/76/1 29/75/1 66/83/1 72/81/1
f 63/66/1 73/69/1 65/72/1 28/67/1
f 24/55/1 52/44/1 73/69/1 63/66/1
f 52/44/1 13/43/1 50/70/1 73/69/1
f 72/81/1 66/83/1 123/83/1 131/81/1
f 14/10/1 42/9/1 104/9/1 105/10/1
f 40/56/1 24/55/1 63/66/1 74/65/1
f 38/82/1 72/81/1 131/81/1 102/82/1
f 57/84/1 79/80/1 137/80/1 127/84/1
f 64/68/1 28/67/1 62/85/1 75/86/1
f 59/58/1 76/61/1 61/64/1 27/59/1
f 66/83/1 85/87/1 141/87/1 123/83/1
f 85/87/1 69/78/1 129/78/1 141/87/1
f 60/60/1 78/53/1 136/53/1 120/60/1
f 84/88/1 38/82/1 102/82/1 140/88/1
f 78/53/1 40/56/1 103/56/1 136/53/1
f 12/39/1 37/38/1 100/38/1 101/39/1
f 62/85/1 84/88/1 140/88/1 121/85/1
f 60/60/1 27/59/1 58/54/1 78/53/1
f 55/50/1 79/80/1 57/84/1 26/51/1
f 49/36/1 5/23/1 91/23/1 118/36/1
f 59/58/1 77/57/1 135/57/1 128/58/1
f 51/62/1 80/49/1 56/52/1 23/63/1
f 11/19/1 36/18/1 98/18/1 99/19/1
f 48/16/1 7/15/1 87/15/1 116/16/1
f 39/42/1 81/45/1 41/48/1 13/43/1
f 23/63/1 56/52/1 81/45/1 39/42/1
f 56/52/1 26/51/1 54/46/1 81/45/1
f 54/46/1 82/89/1 53/79/1 25/47/1
f 26/51/1 57/84/1 82/89/1 54/46/1
f 10/32/1 35/31/1 96/31/1 97/32/1
f 58/54/1 83/41/1 52/44/1 24/55/1
f 27/59/1 61/64/1 83/41/1 58/54/1
f 61/64/1 23/63/1 39/42/1 83/41/1
f 47/29/1 1/28/1 93/28/1 114/29/1
f 28/67/1 65/72/1 84/88/1 62/85/1
f 65/72/1 22/71/1 38/82/1 84/88/1
f 9/8/1 34/7/1 94/7/1 95/8/1
f 29/75/1 69/78/1 85/87/1 66/83/1
f 46/5/1 3/4/1 89/4/1 112/5/1
f 123/83/6 141/87/6 197/87/6 179/83/6
f 93/28/6 92/1/6 148/1/6 149/28/6
f 100/38/6 119/37/6 175/37/6 156/38/6
f 141/87/5 129/78/5 185/78/5 197/87/5
f 91/23/3 90/22/3 146/22/3 147/23/3
f 98/18/3 117/17/3 173/17/3 154/18/3
f 122/68/3 133/86/3 189/86/3 178/68/3
f 89/4/5 88/35/5 144/35/5 145/4/5
f 96/31/5 115/30/5 171/30/5 152/31/5
f 140/88/6 102/82/6 158/82/6 196/88/6
f 87/12/2 86/11/2 142/11/2 143/12/2
f 94/7/2 113/6/2 169/6/2 150/7/2
f 121/85/6 140/88/6 196/88/6 177/85/6
f 92/1/6 111/2/6 167/2/6 148/1/6
f 103/56/3 132/65/3 188/65/3 159/56/3
f 90/22/3 109/21/3 165/21/3 146/22/3
f 132/65/3 122/68/3 178/68/3 188/65/3
f 88/35/5 107/34/5 163/34/5 144/35/5
f 131/81/6 123/83/6 179/83/6 187/81/6
f 139/89/5 127/84/5 183/84/5 195/89/5
f 86/11/2 105/10/2 161/10/2 142/11/2
f 102/82/6 131/81/6 187/81/6 158/82/6
f 125/79/5 139/89/5 195/89/5 181/79/5
f 126/50/2 138/49/2 194/49/2 182/50/2
f 138/49/2 124/62/2 180/62/2 194/49/2
f 130/77/5 125/79/5 181/79/5 186/77/5
f 129/78/5 130/77/5 186/77/5 185/78/5
f 119/37/6 118/36/6 174/36/6 175/37/6
f 19/30/1 47/29/1 114/29/1 115/30/1
f 80/49/1 51/62/1 124/62/1 138/49/1
f 74/65/1 64/68/1 122/68/1 132/65/1
f 34/7/1 18/6/1 113/6/1 94/7/1
f 20/17/1 48/16/1 116/16/1 117/17/1
f 55/50/1 80/49/1 138/49/1 126/50/1
f 40/56/1 74/65/1 132/65/1 103/56/1
f 35/31/1 19/30/1 115/30/1 96/31/1
f 21/37/1 49/36/1 118/36/1 119/37/1
f 36/18/1 20/17/1 117/17/1 98/18/1
f 37/38/1 21/37/1 119/37/1 100/38/1
f 64/68/1 75/86/1 133/86/1 122/68/1
f 53/79/1 82/89/1 139/89/1 125/79/1
f 82/89/1 57/84/1 127/84/1 139/89/1
f 7/12/1 30/11/1 86/11/1 87/12/1
f 75/86/1 62/85/1 121/85/1 133/86/1
f 3/4/1 31/35/1 88/35/1 89/4/1
f 42/9/1 9/8/1 95/8/1 104/9/1
f 43/33/1 10/32/1 97/32/1 106/33/1
f 5/23/1 32/22/1 90/22/1 91/23/1
f 76/61/1 59/58/1 128/58/1 134/61/1
f 69/78/1 70/77/1 130/77/1 129/78/1
f 44/20/1 11/19/1 99/19/1 108/20/1
f 1/28/1 33/1/1 92/1/1 93/28/1
f 51/62/1 76/61/1 134/61/1 124/62/1
f 70/77/1 53/79/1 125/79/1 130/77/1
f 45/40/1 12/39/1 101/39/1 110/40/1
f 77/57/1 60/60/1 120/60/1 135/57/1
f 197/87/1 172/90/1 143/91/1 142/92/1
f 196/88/1 158/82/1 151/93/1 150/94/1
f 195/89/1 164/95/1 155/96/1 181/79/1
f 193/80/1 146/97/1 165/98/1 183/84/1
f 189/86/1 177/85/1 169/99/1 168/100/1
f 187/81/1 179/83/1 161/101/1 160/102/1
f 186/77/1 154/103/1 173/104/1 185/78/1
f 181/79/1 155/96/1 154/103/1 186/77/1
f 158/82/1 187/81/1 160/102/1 151/93/1
f 162/33/1 188/65/1 178/68/1 163/34/1
f 153/32/1 159/56/1 188/65/1 162/33/1
f 144/35/1 189/86/1 168/100/1 145/4/1
f 163/34/1 178/68/1 189/86/1 144/35/1
f 167/105/1 166/106/1 190/61/1 184/58/1
f 166/106/1 157/107/1 180/62/1 190/61/1
f 170/29/1 191/57/1 176/60/1 171/30/1
f 149/28/1 148/108/1 191/57/1 170/29/1
f 148/108/1 167/105/1 184/58/1 191/57/1
f 152/31/1 192/53/1 159/56/1 153/32/1
f 171/30/1 176/60/1 192/53/1 152/31/1
f 175/109/1 174/110/1 193/80/1 182/50/1
f 174/110/1 147/111/1 146/97/1 193/80/1
f 157/107/1 156/112/1 194/49/1 180/62/1
f 156/112/1 175/109/1 182/50/1 194/49/1
f 183/84/1 165/98/1 164/95/1 195/89/1
f 177/85/1 196/88/1 150/94/1 169/99/1
f 179/83/1 197/87/1 142/92/1 161/101/1
f 185/78/1 173/104/1 172/90/1 197/87/1
f 133/86/6 121/85/6 177/85/6 189/86/6
f 104/9/2 95/8/2 151/8/2 160/9/2
f 95/8/2 94/7/2 150/7/2 151/8/2
f 106/33/5 97/32/5 153/32/5 162/33/5
f 97/32/5 96/31/5 152/31/5 153/32/5
f 134/61/2 128/58/2 184/58/2 190/61/2
f 108/20/3 99/19/3 155/19/3 164/20/3
f 99/19/3 98/18/3 154/18/3 155/19/3
f 124/62/2 134/61/2 190/61/2 180/62/2
f 110/40/6 101/39/6 157/39/6 166/40/6
f 101/39/6 100/38/6 156/38/6 157/39/6
f 135/57/3 120/60/3 176/60/3 191/57/3
f 112/5/2 89/4/2 145/4/2 168/5/2
f 114/29/5 93/28/5 149/28/5 170/29/5
f 116/16/3 87/15/3 143/15/3 172/16/3
f 105/10/2 104/9/2 160/9/2 161/10/2
f 128/58/2 135/57/2 191/57/2 184/58/2
f 118/36/6 91/23/6 147/23/6 174/36/6
f 107/34/5 106/33/5 162/33/5 163/34/5
f 136/53/3 103/56/3 159/56/3 192/53/3
f 109/21/3 108/20/3 164/20/3 165/21/3
f 120/60/3 136/53/3 192/53/3 176/60/3
f 111/2/6 110/40/6 166/40/6 167/2/6
f 113/6/2 112/5/2 168/5/2 169/6/2
f 127/84/5 137/80/5 193/80/5 183/84/5
f 115/30/5 114/29/5 170/29/5 171/30/5
f 117/17/3 116/16/3 172/16/3 173/17/3
f 137/80/2 126/50/2 182/50/2 193/80/2
